OpenSim_Sub07_CSStiffKnee_RCS.mot
version=1
nRows=47
nColumns=11
inDegrees=no
endheader
time	Top_Thigh	Med_Thigh	Bot_Thigh	Top_Shank	2nd_Top_Shank	2nd_Bot_Shank	Bot_Shank	BNOx	BNOy	BNOZ
16.83000000	2041.87812363	1878.26205261	1511.17939803	1358.75769799	1362.67574527	1207.31451109	1176.92901036	37.71886001	-63.55032232	142.31745645
16.84000000	2041.12017864	1873.91704998	1510.11302872	1359.82379368	1362.94197020	1207.88092960	1175.34467312	33.49382746	-65.07560689	148.06983968
16.85000000	2040.62010432	1869.19103592	1509.87584481	1360.56563205	1363.24569263	1208.48907142	1173.54412287	29.04508665	-66.59092702	154.54142230
16.86000000	2040.31620840	1864.30830366	1510.33600778	1360.97398795	1363.56160343	1209.10445057	1171.66719919	24.51089942	-68.06684156	161.44068795
16.87000000	2040.11315435	1859.60131697	1511.28414347	1361.07539022	1363.85268756	1209.68536165	1169.91206754	20.08414298	-69.46475947	168.34342457
16.88000000	2039.91651982	1855.39910921	1512.51243197	1360.89638328	1364.08232422	1210.19057431	1168.47478715	15.95572076	-70.74651924	174.82961333
16.89000000	2039.67359074	1851.87752252	1513.88769254	1360.45756039	1364.23136628	1210.59865052	1167.45884312	12.22978943	-71.89233538	180.66658078
16.90000000	2039.38583355	1849.01339817	1515.37370338	1359.77178400	1364.30336545	1210.91386307	1166.84746344	8.89781856	-72.90629350	185.86502167
16.91000000	2039.05833566	1846.77027787	1516.94072262	1358.85139994	1364.30339047	1211.14220305	1166.61583912	5.94374668	-73.79407456	190.45189551
16.92000000	2038.69618449	1845.11170332	1518.55900841	1357.70875400	1364.23651006	1211.28966157	1166.73916118	3.35151229	-74.56135951	194.45416176
16.93000000	2038.30446746	1844.00121624	1520.19881887	1356.35619199	1364.10779296	1211.36222973	1167.19262064	1.10505391	-75.21382931	197.89877991
16.94000000	2037.88827198	1843.40235833	1521.83041213	1354.80605973	1363.92230790	1211.36589863	1167.95140851	-0.81168994	-75.75716490	200.81270946
16.95000000	2037.45268547	1843.27867130	1523.42404633	1353.07070302	1363.68512360	1211.30665937	1168.99071580	-2.41478075	-76.19704726	203.22290987
16.96000000	2037.00279535	1843.59369687	1524.94997961	1351.16246766	1363.40130880	1211.19050304	1170.28573353	-3.72028001	-76.53915732	205.15634063
16.97000000	2036.54368903	1844.31097674	1526.37847010	1349.09369947	1363.07593223	1211.02342075	1171.81165271	-4.74424921	-76.78917605	206.63996124
16.98000000	2036.08045393	1845.39405261	1527.67977592	1346.87674426	1362.71406261	1210.81140360	1173.54366436	-5.50274982	-76.95278441	207.70073116
16.99000000	2035.61817746	1846.80646621	1528.82415521	1344.52394782	1362.32076868	1210.56044269	1175.45695949	-6.01184334	-77.03566333	208.36560988
17	2035.16194705	1848.51175923	1529.78186612	1342.04765598	1361.90111917	1210.27652911	1177.52672911	-6.28759125	-77.04349379	208.66155689
17.01000000	2034.71685011	1850.47347338	1530.52316676	1339.46021453	1361.46018280	1209.96565398	1179.72816425	-6.34605503	-76.98195674	208.61553168
17.02000000	2034.28797405	1852.65515038	1531.01831528	1336.77396929	1361.00302831	1209.63380838	1182.03645591	-6.20329618	-76.85673313	208.25449371
17.03000000	2033.88040630	1855.02033194	1531.23756980	1334.00126606	1360.53472443	1209.28698342	1184.42679511	-5.87537617	-76.67350391	207.60540248
17.04000000	2033.49923426	1857.53255975	1531.15118846	1331.15445065	1360.06033988	1208.93117020	1186.87437286	-5.37835650	-76.43795004	206.69521748
17.05000000	2033.14954535	1860.15537554	1530.72942940	1328.24586887	1359.58494340	1208.57235981	1189.35438018	-4.72829864	-76.15575248	205.55089817
17.06000000	2032.83642700	1862.85232101	1529.94255074	1325.28786653	1359.11360372	1208.21654337	1191.84200808	-3.94126409	-75.83259218	204.19940405
17.07000000	2032.56496662	1865.58693787	1528.76081062	1322.29278943	1358.65138956	1207.86971196	1194.31244758	-3.03331433	-75.47415009	202.66769461
17.08000000	2032.34025162	1868.32276782	1527.15446717	1319.27298339	1358.20336966	1207.53785669	1196.74088969	-2.02051085	-75.08610718	200.98272931
17.09000000	2032.16736942	1871.02335258	1525.09377854	1316.24079420	1357.77461275	1207.22696866	1199.10252543	-0.91891513	-74.67414439	199.17146766
17.10000000	2032.05140743	1873.65223386	1522.54900284	1313.20856769	1357.37018756	1206.94303896	1201.37254580	0.25541134	-74.24394268	197.26086912
17.11000000	2031.99745308	1876.17295336	1519.49039821	1310.18864965	1356.99516281	1206.69205871	1203.52614183	1.48640708	-73.80118300	195.27789319
17.12000000	2032.01059378	1878.54905280	1515.88822279	1307.19338589	1356.65460724	1206.48001899	1205.53850452	2.75801059	-73.35154632	193.24949934
17.13000000	2032.09591695	1880.74407387	1511.71273471	1304.23512223	1356.35358957	1206.31291091	1207.38482490	4.05416041	-72.90071358	191.20264706
17.14000000	2032.25851000	1882.72155830	1506.93419211	1301.32620446	1356.09717855	1206.19672557	1209.04029398	5.35879503	-72.45436575	189.16429584
17.15000000	2032.50346035	1884.44504779	1501.52285311	1298.47897841	1355.89044288	1206.13745407	1210.48010277	6.65585297	-72.01818376	187.16140515
17.16000000	2032.83585541	1885.87808404	1495.44897585	1295.70578986	1355.73845132	1206.14108751	1211.67944228	7.92927275	-71.59784859	185.22093449
17.17000000	2033.26078261	1886.98420878	1488.68281847	1293.01898465	1355.64627259	1206.21361698	1212.61350353	9.16299288	-71.19904119	183.36984333
17.18000000	2033.78332936	1887.72696370	1481.19463909	1290.43090856	1355.61897541	1206.36103360	1213.25747754	10.34095188	-70.82744250	181.63509115
17.19000000	2034.40858307	1888.06989051	1472.95469585	1287.95390742	1355.66162851	1206.58932845	1213.58655532	11.44708826	-70.48873349	180.04363745
17.20000000	2035.14163116	1887.97653093	1463.93324689	1285.60032702	1355.77930064	1206.90449264	1213.57592788	12.46534053	-70.18859511	178.62244170
17.21000000	2035.98756105	1887.41042666	1454.10055033	1283.38251317	1355.97706051	1207.31251727	1213.20078624	13.37964721	-69.93270831	177.39846339
17.22000000	2036.95146016	1886.33511941	1443.42686431	1281.31281169	1356.25997686	1207.81939343	1212.43632141	14.17394681	-69.72675405	176.39866200
17.23000000	2038.03841589	1884.71415090	1431.88244697	1279.40356838	1356.63311842	1208.43111224	1211.25772441	14.83217785	-69.57641329	175.64999701
17.24000000	2039.25311903	1882.51124857	1419.43844075	1277.66691214	1357.10150419	1209.15351426	1209.64042995	15.33835033	-69.48733707	175.17928787
17.25000000	2040.51617078	1879.72951813	1406.25346527	1276.06898696	1357.65961097	1209.96053072	1207.61153935	15.69162977	-69.45883585	174.98366688
17.26000000	2041.56055751	1876.45992336	1392.90442636	1274.47333844	1358.27839453	1210.75489875	1205.31342882	15.92499566	-69.47607341	174.99403037
17.27000000	2042.09388001	1872.80531582	1380.02482674	1272.72962995	1358.92562810	1211.42972250	1202.90407206	16.07600274	-69.52229937	175.13231248
17.28000000	2041.82373911	1868.86854705	1368.24816913	1270.68752483	1359.56908488	1211.87810610	1200.54144276	16.18220575	-69.58076338	175.32044740
17.29000000	2040.45972960	1864.75217004	1358.20427781	1268.19757284	1360.17666900	1211.99382923	1198.38270707	16.28099249	-69.63479662	175.48074608
